<svg xmlns="http://www.w3.org/2000/svg" viewbox="0 0 830 379">
<symbol id="slider-dot">
<path d="M0 0 C1.20888885 0.00182281 2.41777771 0.00364563 3.66329956 0.00552368 C21.9659218 0.05192065 39.87421321 0.60222554 58 3.3125 C59.20124512 3.48410645 60.40249023 3.65571289 61.64013672 3.83251953 C90.81160138 8.06910213 119.02051079 15.10079125 147 24.3125 C147.89267578 24.60060547 148.78535156 24.88871094 149.70507812 25.18554688 C201.17122856 41.8519408 250.10803455 68.52084992 293 101.3125 C293.68497559 101.83352295 294.36995117 102.3545459 295.07568359 102.89135742 C302.17481775 108.31889882 308.97422525 113.94322446 315.52734375 120.0234375 C318.41370594 122.69548843 321.37282328 125.2724418 324.35546875 127.8359375 C326 129.3125 326 129.3125 328.25 131.8125 C329.11625 132.555 329.11625 132.555 330 133.3125 C333.2008641 132.89410551 335.2707539 131.61750353 337.8359375 129.72265625 C338.56296875 129.19091797 339.29 128.65917969 340.0390625 128.11132812 C340.80992187 127.53833984 341.58078125 126.96535156 342.375 126.375 C344.00756477 125.17804746 345.64037963 123.98143594 347.2734375 122.78515625 C348.0787793 122.19234863 348.88412109 121.59954102 349.71386719 120.98876953 C352.78874741 118.73416385 355.89131064 116.52011998 359 114.3125 C367.36293455 108.35357457 375.67922872 102.33007622 384 96.3125 C392.87867815 89.89144591 401.75923342 83.47396398 410.68164062 77.11376953 C415.38335382 73.759433 420.06834194 70.38225704 424.75 67 C425.86955078 66.19236206 425.86955078 66.19236206 427.01171875 65.3684082 C431.04415452 62.45738593 435.06687136 59.53390378 439.078125 56.59375 C439.9021582 55.99216064 440.72619141 55.39057129 441.57519531 54.77075195 C443.16592217 53.60909852 444.75391623 52.44369166 446.33886719 51.27416992 C447.05204102 50.75443604 447.76521484 50.23470215 448.5 49.69921875 C449.1290625 49.23733154 449.758125 48.77544434 450.40625 48.29956055 C452 47.3125 452 47.3125 454 47.3125 C454 135.0925 454 222.8725 454 313.3125 C450.36250917 312.40312729 448.86481254 311.73366119 445.9375 309.64453125 C445.15117188 309.08830078 444.36484375 308.53207031 443.5546875 307.95898438 C442.71164062 307.35376953 441.86859375 306.74855469 441 306.125 C439.18761284 304.83968462 437.37510965 303.55453285 435.5625 302.26953125 C434.17417969 301.28073975 434.17417969 301.28073975 432.7578125 300.27197266 C428.52156426 297.26204628 424.26046811 294.28799135 420 291.3125 C418.33319548 290.14603029 416.66652924 288.97936296 415 287.8125 C414.175 287.235 413.35 286.6575 412.5 286.0625 C385 266.8125 385 266.8125 382.49975586 265.06225586 C380.83399475 263.89627189 379.16814196 262.7304189 377.50219727 261.56469727 C373.32091173 258.63865547 369.14127198 255.71031516 364.96484375 252.77734375 C353.70028634 244.87120437 342.37661202 237.05653878 331 229.3125 C327.06647615 232.6325719 323.21355091 236.00781976 319.47558594 239.54663086 C312.9221421 245.73911517 306.06878091 251.38835186 298.90380859 256.85449219 C296.88065347 258.40390003 294.87148956 259.97033909 292.86328125 261.5390625 C283.83526197 268.56280373 274.64754345 275.16845533 265 281.3125 C263.84056885 282.0545166 263.84056885 282.0545166 262.65771484 282.81152344 C245.02401653 294.05088793 226.8115332 304.22333714 207.99267578 313.34277344 C205.9145513 314.35408322 203.8462641 315.38407033 201.77734375 316.4140625 C158.4284591 337.74129519 110.29627105 352.25013895 62.41845703 358.84082031 C60.22432489 359.1435673 58.03225366 359.4618907 55.84326172 359.79980469 C19.13340273 365.41364092 -21.32315289 364.97700484 -58 359.3125 C-59.18577637 359.13557617 -60.37155273 358.95865234 -61.59326172 358.77636719 C-140.38783078 346.7847637 -217.78597778 315.77042724 -282 268.3125 C-282.56348145 267.89919434 -283.12696289 267.48588867 -283.70751953 267.06005859 C-303.41171772 252.58841319 -324.66562353 236.54077432 -340 217.3125 C-340.4120166 216.80750977 -340.8240332 216.30251953 -341.24853516 215.78222656 C-360.12963972 192.62827322 -360.12963972 192.62827322 -360 180.3125 C-356.62844143 160.41369354 -339.96877676 145.01852048 -326.375 131.375 C-325.89435089 130.89067505 -325.41370178 130.4063501 -324.91848755 129.90734863 C-318.28270547 123.24512016 -311.36331069 117.15423297 -304 111.3125 C-302.74566404 110.2872714 -301.49283199 109.26019723 -300.2421875 108.23046875 C-259.95967776 75.4331028 -213.39345726 49.94811408 -165 31.3125 C-163.28466064 30.65193604 -163.28466064 30.65193604 -161.53466797 29.97802734 C-129.30075402 17.71954526 -96.15604764 9.24696117 -62.0625 4.0625 C-61.07080811 3.91127686 -60.07911621 3.76005371 -59.05737305 3.60424805 C-39.38524439 0.78985756 -19.855704 -0.0623228 0 0 Z M-251 139.3125 C-255.47991019 145.07238453 -257.38800765 150.54280621 -256.875 157.8125 C-255.68636247 165.58538813 -252.28617042 170.88993003 -246.2109375 175.8359375 C-240.69828329 179.51753342 -234.59509502 181.12242395 -228 180.3125 C-219.74859317 177.86080404 -213.51049835 174.38492052 -209.125 166.75 C-206.07309763 160.08139515 -205.66923135 153.59171479 -207.8515625 146.57421875 C-211.02556428 139.45970457 -215.86096395 134.47608703 -222.75 130.875 C-234.34450861 128.86825812 -243.13104084 130.13204764 -251 139.3125 Z " transform="translate(367,7.6875)"/>
</symbol>
</svg>
